# xmcd
#
# Track frame offsets: 
#        150
#        16469
#        24093
#
# Disc length: 1009 seconds
#
# Revision: 2
# Processed by: cddbd v1.5.2PL0 Copyright (c) Steve Scherf et al.
# Submitted via: ExactAudioCopy v0.99pb3
#
DISCID=1403ef03
DTITLE=Taake - Nekro
DYEAR=2007
DGENRE=black metal
TTITLE0=Voldtekt
TTITLE1=Lamb
TTITLE2=Hennes Kalde Skamlepper
EXTD=
EXTT0=
EXTT1=
EXTT2=
PLAYORDER=
